<svg width="38" height="36" viewBox="0 0 38 36" fill="none" xmlns="http://www.w3.org/2000/svg">
<path d="M37.8866 35.3784L22.2268 0.280497C22.2047 0.232773 22.1696 0.192433 22.1256 0.164235C22.0815 0.136037 22.0305 0.121153 21.9784 0.12134H15.8834C15.8313 0.121153 15.7802 0.136037 15.7362 0.164235C15.6922 0.192433 15.6571 0.232773 15.635 0.280497L0.0248634 35.3868C0.00699252 35.4274 -0.000584705 35.4719 0.00280076 35.5163C0.00618622 35.5606 0.0204195 35.6034 0.0442473 35.6408C0.0680751 35.6782 0.100731 35.7091 0.139271 35.7305C0.177811 35.7519 0.22104 35.7634 0.265026 35.7637H6.41796C6.47098 35.7632 6.52268 35.747 6.56679 35.7173C6.6109 35.6875 6.64551 35.6455 6.66639 35.5962L18.6576 7.31682C18.6794 7.2687 18.7144 7.22792 18.7584 7.19933C18.8025 7.17074 18.8537 7.15557 18.906 7.15557C18.9584 7.15557 19.0096 7.17074 19.0536 7.19933C19.0977 7.22792 19.1327 7.2687 19.1545 7.31682L31.1705 35.6045C31.192 35.651 31.2259 35.6905 31.2683 35.7186C31.3107 35.7467 31.36 35.7623 31.4107 35.7637H37.6713C37.7142 35.76 37.7556 35.7457 37.7919 35.7222C37.8282 35.6986 37.8583 35.6665 37.8795 35.6285C37.9007 35.5905 37.9124 35.5479 37.9137 35.5043C37.9149 35.4608 37.9056 35.4175 37.8866 35.3784Z" fill="#48484A"/>
<path d="M18.6576 31.919L25.2825 26.1643L22.7568 23.7937H14.5666L12.0326 26.1643L18.6576 31.919Z" fill="#FF375F"/>
</svg>
